<?xml version="1.0" standalone="no"?>
<!DOCTYPE svg PUBLIC "-//W3C//DTD SVG 20010904//EN"
 "http://www.w3.org/TR/2001/REC-SVG-20010904/DTD/svg10.dtd">
<svg version="1.0" xmlns="http://www.w3.org/2000/svg"
 width="600.000000pt" height="80.000000pt" viewBox="0 0 600.000000 80.000000"
 preserveAspectRatio="xMidYMid meet">

<g transform="translate(0.000000,80.000000) scale(0.100000,-0.100000)"
fill="#000000" stroke="none">
<path d="M0 400 l0 -390 65 0 65 0 0 267 c0 155 4 263 9 258 5 -6 43 -91 84
-190 l76 -180 98 0 98 0 82 190 82 190 1 -267 0 -268 70 0 70 0 0 390 0 391
-81 -3 -81 -3 -107 -245 c-86 -196 -111 -246 -128 -248 -21 -3 -40 37 -194
395 l-44 103 -82 0 -83 0 0 -390z"/>
<path d="M2010 400 l0 -390 65 0 65 0 0 125 c0 112 2 125 18 125 9 0 63 -53
122 -119 l105 -120 84 0 83 -1 -52 58 c-29 31 -91 98 -137 148 l-83 92 77 74
c43 41 101 95 128 121 l50 47 -79 0 -79 0 -107 -100 c-60 -55 -113 -100 -119
-100 -8 0 -11 65 -11 215 l0 215 -65 0 -65 0 0 -390z"/>
<path d="M3504 773 c3 -10 61 -184 129 -388 l124 -370 49 0 49 0 81 280 c67
232 84 280 99 280 15 0 31 -47 94 -283 l76 -283 48 3 48 3 128 388 129 387
-66 0 -67 0 -84 -260 c-47 -143 -86 -258 -88 -256 -2 1 -36 117 -76 257 l-73
254 -70 3 -69 3 -74 -261 c-40 -143 -75 -260 -77 -260 -1 0 -41 117 -89 260
l-87 260 -70 0 c-61 0 -69 -2 -64 -17z"/>
<path d="M3180 427 c0 -273 1 -284 23 -327 31 -62 69 -81 172 -88 l85 -5 0 62
0 61 -63 0 c-36 0 -68 5 -75 12 -8 8 -12 58 -12 160 l0 148 75 0 75 0 0 55 0
55 -75 0 -75 0 0 75 0 75 -65 0 -65 0 0 -283z"/>
<path d="M1033 545 c-99 -50 -138 -133 -131 -278 5 -108 25 -156 89 -210 95
-82 248 -69 304 25 9 15 23 28 31 28 12 0 13 -10 8 -50 l-7 -50 67 0 66 0 0
275 0 275 -66 0 -66 0 4 -47 c4 -57 -10 -64 -39 -18 -50 76 -164 98 -260 50z
m250 -134 c40 -38 42 -41 45 -113 3 -64 1 -77 -20 -108 -62 -93 -208 -92 -263
1 -14 24 -20 52 -20 94 1 110 53 165 158 165 53 0 61 -3 100 -39z"/>
<path d="M2722 557 c-56 -18 -128 -91 -151 -153 -40 -105 -21 -235 44 -311 51
-60 114 -87 200 -88 118 0 202 48 240 138 l15 37 -60 0 c-49 0 -61 -3 -70 -20
-27 -51 -125 -65 -191 -28 -34 19 -79 83 -79 111 0 4 93 7 206 7 l207 0 -6 64
c-3 34 -13 82 -23 105 -20 51 -99 123 -152 139 -47 14 -134 14 -180 -1z m154
-103 c32 -15 74 -68 74 -93 0 -8 -42 -11 -140 -11 -77 0 -140 4 -140 9 0 21
49 78 80 93 44 22 82 23 126 2z"/>
<path d="M5057 555 c-97 -34 -142 -133 -101 -221 23 -48 69 -72 181 -95 106
-21 133 -38 133 -80 0 -39 -33 -59 -95 -59 -59 0 -112 28 -121 64 -5 22 -12
25 -65 28 -54 3 -59 1 -59 -17 0 -36 44 -109 78 -132 71 -47 213 -53 292 -13
90 46 119 132 74 222 -24 48 -72 69 -227 98 -63 13 -94 42 -82 80 8 24 54 50
90 50 43 0 93 -27 110 -59 14 -29 19 -31 71 -31 55 0 56 1 50 25 -18 71 -47
107 -110 136 -49 22 -162 25 -219 4z"/>
<path d="M5640 557 c-19 -6 -58 -34 -87 -63 -40 -40 -55 -64 -69 -109 -36
-125 3 -263 93 -331 96 -73 262 -66 346 14 25 23 67 91 67 107 0 3 -27 5 -59
5 -43 0 -60 -4 -65 -15 -10 -27 -69 -55 -115 -55 -60 0 -116 33 -141 85 -11
23 -20 44 -20 48 0 4 93 7 206 7 l207 0 -5 63 c-13 160 -116 259 -267 256 -31
-1 -72 -6 -91 -12z m157 -104 c34 -16 73 -64 73 -90 0 -10 -35 -13 -140 -13
l-140 0 11 27 c30 80 117 114 196 76z"/>
<path d="M1580 290 l0 -270 65 0 65 0 0 170 0 170 28 30 c28 32 78 49 145 50
l37 0 0 60 0 60 -41 0 c-53 0 -97 -27 -129 -79 -14 -22 -28 -41 -32 -41 -5 0
-8 27 -8 60 l0 60 -65 0 -65 0 0 -270z"/>
<path d="M4642 348 c3 -193 5 -217 24 -253 27 -51 66 -73 142 -81 l62 -7 0 62
0 61 -33 0 c-63 0 -67 13 -67 233 l0 197 -66 0 -66 0 4 -212z"/>
</g>
</svg>
