<?xml version="1.0" standalone="no"?>
<!DOCTYPE svg PUBLIC "-//W3C//DTD SVG 20010904//EN"
 "http://www.w3.org/TR/2001/REC-SVG-20010904/DTD/svg10.dtd">
<svg version="1.0" xmlns="http://www.w3.org/2000/svg"
 width="200.000000pt" height="200.000000pt" viewBox="0 0 200.000000 200.000000"
 preserveAspectRatio="xMidYMid meet">

<g transform="translate(0.000000,200.000000) scale(0.100000,-0.100000)"
fill="#000000" stroke="none">
<path d="M0 1000 l0 -1000 1000 0 1000 0 0 1000 0 1000 -1000 0 -1000 0 0
-1000z m1758 82 c-29 -32 -114 -122 -188 -200 l-135 -144 -93 99 -92 98 -94
-98 -93 -98 -94 99 -93 100 -94 -100 -95 -99 -93 98 -94 98 -92 -99 -93 -98
-63 67 -63 67 53 56 c29 32 100 107 157 167 l103 110 93 -100 93 -99 93 98 94
98 94 -97 95 -98 92 99 93 99 93 -99 93 -99 125 132 125 133 63 -67 63 -67
-53 -56z m-106 -319 c-5 -23 -7 -25 -10 -8 -2 11 -9 23 -16 27 -6 5 -3 8 10 8
18 0 20 -4 16 -27z m45 15 c7 18 23 4 22 -21 0 -12 -3 -16 -6 -9 -4 10 -8 10
-19 1 -11 -9 -14 -8 -14 2 0 11 -2 11 -10 -1 -8 -12 -10 -11 -10 6 0 27 11 38
23 22 7 -10 10 -10 14 0z"/>
</g>
</svg>
